<svg xmlns="http://www.w3.org/2000/svg" data-name="Layer 1" viewBox="0 0 100 125" x="0px" y="0px"><title>09</title><path d="M10,23.5h7v59a14,14,0,0,0,14,14H71a14,14,0,0,0,14-14v-59h5a4,4,0,0,0,0-8H70a12,12,0,0,0-12-12H44a12,12,0,0,0-12,12H10a4,4,0,1,0,0,8Zm67,0v59a6,6,0,0,1-6,6H31a6,6,0,0,1-6-6v-59Zm-33-12H58a4,4,0,0,1,4,4H40A4,4,0,0,1,44,11.5Z"/><path d="M51,38.5a4,4,0,0,0-4,4v36a4,4,0,0,0,8,0v-36A4,4,0,0,0,51,38.5Z"/><path d="M61,42.5v36a4,4,0,0,0,8,0v-36a4,4,0,0,0-8,0Z"/><path d="M37,38.5a4,4,0,0,0-4,4v36a4,4,0,0,0,8,0v-36A4,4,0,0,0,37,38.5Z"/><text x="0" y="115" fill="currentColor" font-size="5px" font-weight="bold" font-family="'Helvetica Neue', Helvetica, Arial-Unicode, Arial, Sans-serif">Created by Karan</text><text x="0" y="120" fill="#000000" font-size="5px" font-weight="bold" font-family="'Helvetica Neue', Helvetica, Arial-Unicode, Arial, Sans-serif">from the Noun Project</text></svg>
